<?xml version="1.0" encoding="UTF-8"?>
<svg id="Layer_2" data-name="Layer 2" xmlns="http://www.w3.org/2000/svg" viewBox="0 0 53.62 53.54">
  <defs>
    <style>
      .cls-1 {
        fill: #fff;
      }
    </style>
  </defs>
  <g id="Layer_1-2" data-name="Layer 1">
    <g id="VKjjy3">
      <path class="cls-1" d="M24.41.08c21.3-1.59,36.21,20.69,25.84,39.61-9.74,17.78-35.11,18.59-46.05,1.55C-6.58,24.46,4.55,1.56,24.41.08ZM19.33,13.34l5.95.47c2.81-.1,5.89-.03,8.67-.47.17-.03.29-.06.36-.23-1.3-4.83-5.94-14.57-11.49-7.65-1.68,2.1-3,5.27-3.49,7.88ZM20.1,4.06c-3.11.78-6.2,2.53-8.67,4.56-.36.3-1.65,1.4-1.86,1.7-.09.13-.21.15-.15.39l6.81,2.01c.81-3.07,2.03-6.07,3.87-8.66ZM43.84,10.35c-.57-.74-1.85-1.82-2.62-2.42-2.25-1.75-5.04-3.17-7.81-3.87,1.82,2.61,3.09,5.58,3.87,8.66l6.81-2.01c.12-.39-.17-.27-.25-.36ZM3.08,25.25h11.22l1.1-9.6c-2.71-.65-5.36-1.46-7.91-2.57-2.68,3.4-4.18,7.85-4.41,12.17ZM50.43,25.25c-.13-3.48-1.22-6.98-2.91-10.01-.26-.46-1.04-2.02-1.5-2.07l-7.9,2.47,1.1,9.6h11.22ZM36.04,25.25c-.08-3.03-.3-6.12-1.07-9.06-5.4.74-10.94.81-16.34-.03-.13.02-.15.12-.19.22-.3.79-.52,3.06-.63,4.01-.19,1.61-.27,3.24-.33,4.85h18.57ZM14.38,28.35H3.08c.24,4.31,1.72,8.8,4.41,12.19l7.91-2.58-1.02-9.6ZM36.04,28.35h-18.57c.1,1.66.13,3.36.33,5.01.09.79.39,3.27.63,3.86.05.11.07.21.21.25,5.39-.9,10.92-.76,16.32-.04.53-.42,1.15-7.92,1.08-9.07ZM50.43,28.35h-11.22l-1.1,9.6,7.88,2.6c2.7-3.41,4.19-7.87,4.43-12.2ZM19.33,40.26c-.24.24.81,2.92,1.01,3.4,1.85,4.48,5.65,10.03,10.28,4.56,1.84-2.18,2.77-5.08,3.71-7.73-.11-.16-.2-.2-.38-.23-1.65-.28-4.18-.43-5.87-.47-2.9-.07-5.86.31-8.75.47ZM16.23,40.88l-6.81,2.09c2.8,3.11,6.51,5.38,10.52,6.58-.61-1.3-1.45-2.45-2.04-3.76-.7-1.54-1.25-3.26-1.68-4.9ZM44.09,42.9l-6.81-2.01c-.45,1.75-1.06,3.57-1.83,5.21-.56,1.2-1.34,2.25-1.88,3.45,4-1.25,7.78-3.45,10.52-6.65Z"/>
    </g>
  </g>
</svg>