<?xml version="1.0" encoding="UTF-8"?>
<svg id="Layer_2" data-name="Layer 2" xmlns="http://www.w3.org/2000/svg" viewBox="0 0 58.44 53.84">
  <defs>
    <style>
      .cls-1 {
        fill: #fff;
      }
    </style>
  </defs>
  <g id="Layer_1-2" data-name="Layer 1">
    <g id="_6I4idg" data-name="6I4idg">
      <g>
        <path class="cls-1" d="M25.13,42.1c.41-3.25,1.43-6.4,3.16-9.19,1.51-2.44,3.59-4.59,6.09-6.01.7.51,1.31,1.1,2.06,1.54,4.12,2.44,9.3,1.76,12.71-1.54.09-.02.48.25.6.32,3.12,1.87,5.77,5.45,7.14,8.79.8,1.96,1.27,3.99,1.56,6.08H25.13Z"/>
        <path class="cls-1" d="M10.04,27.57c4.17,3.25,9.28,3.06,13.39-.18.16-.12.44-.53.64-.49.13.02,1.05.66,1.23.8.89.63,1.82,1.42,2.5,2.25-.7,1.07-1.44,2.12-2.03,3.26-1.43,2.76-2.29,5.79-2.68,8.87H0c.2-1.81.61-3.6,1.23-5.32,1.46-4.05,4.21-7.69,7.94-9.87.16-.01.69.54.86.67Z"/>
        <path class="cls-1" d="M47.75,13.54c4.33,4.34,2.6,11.72-3.12,13.77-7.34,2.63-14.02-5.34-10.1-12.12,2.79-4.82,9.31-5.56,13.22-1.64Z"/>
        <path class="cls-1" d="M21.63,12.65c5.1,3.73,4.24,11.74-1.47,14.37-6.37,2.94-13.28-2.73-11.72-9.55,1.33-5.84,8.35-8.36,13.19-4.82Z"/>
        <path class="cls-1" d="M20.35,47.96c.08.09-.64.78-.73.9-.05.08-.09.08-.04.18.12.22,2.05,1.2,2.41,1.36,5.93,2.66,12.55,1.73,17.66-2.16.47-.36,1.08-1.18,1.71-1.12.74.07,1.11.84.75,1.48-.08.13-.65.66-.81.8-2.38,2-5.62,3.55-8.69,4.11-5.04.92-10.16-.18-14.39-3-.08,0-.66.81-.79.93-.06.06-.08.09-.18.07l-1.45-4.42,4.56.87Z"/>
        <path class="cls-1" d="M39.83,2.34l1.49,4.27-.08.15-4.53-.87c-.02-.1,0-.13.05-.21.1-.16.86-.77.74-.94-.04-.06-1.12-.68-1.3-.77-5.62-3.06-12.57-2.69-17.84.92-.45.31-2.05,1.72-2.35,1.78-.81.16-1.44-.56-1.12-1.34.13-.32,1.78-1.64,2.15-1.9,6.43-4.52,15.35-4.59,21.8-.08.15-.1.82-1.13.98-1.01Z"/>
      </g>
    </g>
  </g>
</svg>