<?xml version="1.0" encoding="UTF-8"?>
<svg id="Layer_2" data-name="Layer 2" xmlns="http://www.w3.org/2000/svg" viewBox="0 0 40.67 56.75">
  <defs>
    <style>
      .cls-1 {
        fill: #fff;
      }
    </style>
  </defs>
  <g id="Layer_1-2" data-name="Layer 1">
    <g id="YnAFlf">
      <g>
        <path class="cls-1" d="M35.12,5.48c1.74,1.68.06,3.64,1.27,5.73,1.04,1.8,3.47,1.3,4.15,3.62.71,2.45-1.77,3.25-1.77,5.51s2.65,3.11,1.7,5.71c-.74,2.04-3.23,1.68-4.22,3.55-1.08,2.06.79,4-1.35,5.72-1.59,1.27-3.06.15-4.72.69-2.81.92-1.98,4.94-5.48,4.65-1.92-.16-2.18-2.05-4.86-1.81-2.03.18-2.78,2.59-5.33,1.6-2.03-.79-1.55-3.62-4.02-4.43-1.88-.62-3.56.88-5.2-1.18-1.34-1.68.05-3.23-.78-5.04-1.01-2.2-3.54-1.52-4.32-3.86-.85-2.59,1.75-3.34,1.72-5.59S-.66,17.21.16,14.72c.71-2.17,3.28-1.81,4.28-3.76s-.68-3.92,1.21-5.59c1.64-1.45,3.52-.07,5.3-.94,2.07-1.01,1.67-3.88,3.97-4.35,2.63-.54,3.2,1.97,5.77,1.75,2.14-.18,2.66-2.42,5.27-1.68,2.11.6,1.76,3.37,3.85,4.33,1.85.85,3.58-.68,5.31,1ZM18.5,6.44c-7.05.72-12.47,7.46-12.17,14.45.48,11.41,14.11,17.62,22.94,10.19,10.67-8.98,3.34-26.07-10.77-24.64Z"/>
        <path class="cls-1" d="M14.13,56.28c-.57-.93-2.58-7.69-3.09-7.94-.11-.05-.22-.08-.35-.08l-7.69,2.73c-.33.09-.69-.19-.78-.49-.21-.68,5.19-11.1,5.72-12.63.9.09,1.6-.43,2.4.22.51.42.88,1.72,1.28,2.33,1.37,2.11,4.28,2.75,6.48,1.53,1.53-.84,2.06-2.19,3.89-.39l-6.62,14.3c-.32.53-.64.8-1.24.42Z"/>
        <path class="cls-1" d="M32.66,37.89c.45,1.62,6.01,12.17,5.79,12.88-.1.32-.47.58-.81.52l-7.31-2.69c-.24-.08-.46-.11-.7,0-.46.22-2.5,6.89-2.99,7.83-.19.34-.6.33-.94.26-.23-.08-.5-.79-.63-1.04-1.04-2.06-2.19-4.49-3.1-6.61-.11-.27-.47-.98-.51-1.17-.15-.89,2.07-4.33,2.35-5.43,1.6.38,3.84-.26,4.89-1.55.59-.72,1.03-2.35,1.61-2.82.76-.62,1.47-.18,2.33-.19Z"/>
        <path class="cls-1" d="M28.31,14.79c1.53.03,2.58,1.81,1.65,3.11-3.17,2.98-6.36,7.15-9.69,9.86-1.06.86-1.92,1-3.05.13s-4.94-4.65-5.83-5.82c-1.49-1.95.06-4.04,2.29-3.4l5.04,4.78,8.13-8.1c.38-.34.96-.56,1.46-.55Z"/>
      </g>
    </g>
  </g>
</svg>