<?xml version="1.0" encoding="UTF-8"?>
<svg id="Layer_2" data-name="Layer 2" xmlns="http://www.w3.org/2000/svg" viewBox="0 0 66.44 56.46">
  <defs>
    <style>
      .cls-1 {
        fill: #fff;
      }
    </style>
  </defs>
  <g id="Layer_1-2" data-name="Layer 1">
    <g id="KuNwVv">
      <g>
        <path class="cls-1" d="M57.17,14.16c-6.57,6.41-12.89,13.1-19.52,19.48h-.33s-13.1-12.81-13.1-12.81L5,39.9c-.12.07-.24.1-.38.09-.5-.05-3.93-3.91-4.62-4.51L23.97,11.32l.4-.07,12.71,12.57.6.13L54.28,7.26c0-.14-.09-.22-.15-.32-.57-.86-3.08-2.67-3.39-3.37-.12-.28-.01-.51.11-.75l15.25-2.81.34.28-2.83,15.38-.32.17c-.22.02-.31-.06-.48-.16-.74-.44-2.93-3.3-3.47-3.44-.46-.12-.54.42-.83.69-.45.42-.91.82-1.35,1.25Z"/>
        <path class="cls-1" d="M59.14,56.46h-7.69v-30.21c2.09-2.27,4.32-4.49,6.59-6.59.15-.14.23-.44.38-.56.27-.2.72-.16.72.09v37.27Z"/>
        <polygon class="cls-1" points="24.14 27.42 24.14 56.46 16.46 56.46 16.46 34.72 23.59 27.57 24.14 27.42"/>
        <path class="cls-1" d="M47.53,56.46h-7.61l-.24-.24v-18.05c0-.06.19-.44.25-.53l7.22-7.06.37.22v25.66Z"/>
        <polygon class="cls-1" points="28.07 56.46 28.07 31.35 28.62 31.33 35.91 38.8 35.91 56.22 35.68 56.46 28.07 56.46"/>
        <polygon class="cls-1" points="12.53 56.46 4.84 56.46 4.84 46.33 12.06 39.11 12.53 39.27 12.53 56.46"/>
      </g>
    </g>
  </g>
</svg>