<?xml version="1.0" encoding="UTF-8"?>
<svg id="Layer_1" data-name="Layer 1" xmlns="http://www.w3.org/2000/svg" xmlns:xlink="http://www.w3.org/1999/xlink" viewBox="0 0 136.58 204.07">
  <defs>
    <style>
      .cls-1 {
        fill: #1c252d;
      }

      .cls-2 {
        font-family: RichmondText-Medium, 'Richmond Text';
        font-size: 3.99px;
        font-weight: 500;
      }

      .cls-2, .cls-3 {
        fill: #5e366d;
      }

      .cls-4 {
        fill: #2c1b47;
      }

      .cls-5 {
        fill: #f08900;
      }
    </style>
  </defs>
  <g id="image_5.psd" data-name="image 5.psd">
    <image id="delete_2" data-name="delete 2" width="436" height="617" transform="translate(-9.36 -1.23) scale(.34)" xlink:href="lumo png nuuew-01.png"/>
  </g>
  <g>
    <g>
      <g>
        <path class="cls-1" d="M91.79,142.83l.21.08c-.43,1.52-1.62,2.44-3.15,2.44-2,0-3.56-1.46-3.56-3.49s1.54-3.46,3.54-3.46,3.25,1.38,3.25,3.46h-5.45c.05,1.5,1.13,2.75,2.71,2.75,1.1,0,1.97-.62,2.44-1.78ZM86.64,141.39h4.21c-.05-1.99-.74-2.75-2.01-2.75s-2.15.89-2.2,2.75Z"/>
        <path class="cls-1" d="M76.9,142.83l.21.08c-.43,1.52-1.62,2.44-3.15,2.44-2,0-3.56-1.46-3.56-3.49s1.54-3.46,3.54-3.46,3.25,1.38,3.25,3.46h-5.45c.05,1.5,1.13,2.75,2.71,2.75,1.1,0,1.97-.62,2.44-1.78ZM71.75,141.39h4.21c-.05-1.99-.74-2.75-2.01-2.75s-2.15.89-2.2,2.75Z"/>
        <path class="cls-1" d="M100.73,144.92v.27h-3.14v-.27l.99-.22v-3.83c0-1.13-.51-1.74-1.48-1.74-1.22,0-1.92.99-1.92,2.35v3.23l.99.22v.27h-3.14v-.27l.89-.22v-5.64l-.89-.24v-.27l2.15-.2v2.04c.3-1.23,1.13-2,2.46-2s2.2.82,2.2,2.44v3.86l.89.22Z"/>
        <path class="cls-1" d="M109.57,144.92v.27h-2.15v-1.93c-.36,1.29-1.45,2.09-2.78,2.09-1.78,0-3.1-1.34-3.1-3.48s1.32-3.48,3.1-3.48c1.33,0,2.42.81,2.78,2.08v-3.27l-.9-.26v-.24l2.15-.2v8.19l.9.22ZM107.42,141.89v-.05c0-1.7-1.05-2.82-2.28-2.82s-2.25,1.17-2.25,2.86.97,2.86,2.25,2.86,2.28-1.14,2.28-2.84Z"/>
        <polygon class="cls-1" points="69.47 143.57 68.59 144.72 66.21 144.72 66.21 136.49 64.02 136.71 64.02 136.98 64.91 137.21 64.91 144.7 64.02 144.92 64.02 145.19 69.75 145.19 69.75 143.57 69.47 143.57"/>
      </g>
      <path class="cls-1" d="M82.17,143.5h-2.16c-.44,0-.71-.2-.71-.55,0-.23.12-.44.28-.64.43.23.95.36,1.54.36,1.62,0,2.72-.99,2.72-2.13,0-.5-.2-.96-.56-1.33l1.39-1.75-.06-.07-2.18,1.27c-.14-.06-.28-.12-.43-.16s-.3-.06-.44-.08-.3-.02-.45-.02c-1.61,0-2.72.97-2.72,2.13,0,.64.35,1.22.93,1.62-.47.31-.85.7-.85,1.23,0,.6.36.99.9,1.17-.99.17-1.54.64-1.54,1.4,0,1.03,1.01,1.58,3.02,1.58h.03c2.24,0,3.69-.87,3.69-2.28,0-1.17-.77-1.76-2.4-1.76ZM81.12,138.68c1.02,0,1.5.78,1.5,1.85s-.48,1.84-1.5,1.84-1.49-.79-1.49-1.84.48-1.85,1.49-1.85ZM80.93,147.27h-.03c-1.42,0-2.2-.55-2.2-1.4,0-.94.81-1.21,1.87-1.21h1.44c1.01,0,1.53.35,1.53,1.09,0,.89-1.01,1.52-2.6,1.52Z"/>
    </g>
    <g>
      <polygon class="cls-4" points="117.26 136.57 112.96 136.57 117.26 132.27 117.26 136.57"/>
      <polygon class="cls-5" points="117.26 132.27 117.26 136.57 121.56 136.57 121.56 140.87 125.86 140.87 125.86 132.27 117.26 132.27"/>
      <path class="cls-3" d="M121.56,140.87v4.3h-6.56c-1.13,0-2.04-.91-2.04-2.04v-6.56h4.3v4.3h4.3Z"/>
      <polygon class="cls-4" points="121.56 145.17 121.56 140.87 125.86 140.87 121.56 145.17"/>
    </g>
  </g>
  <text class="cls-2" transform="translate(81.12 152.67)"><tspan x="0" y="0">Holding Group</tspan></text>
</svg>